<svg id="visual" viewBox="0 0 540 960" width="540" height="960" xmlns="http://www.w3.org/2000/svg" xmlns:xlink="http://www.w3.org/1999/xlink" version="1.1"><rect x="0" y="0" width="540" height="960" fill="#ffffff"></rect><defs><linearGradient id="grad1_0" x1="0%" y1="100%" x2="100%" y2="0%"><stop offset="30%" stop-color="#ffffff" stop-opacity="1"></stop><stop offset="70%" stop-color="#ffffff" stop-opacity="1"></stop></linearGradient></defs><defs><linearGradient id="grad2_0" x1="0%" y1="100%" x2="100%" y2="0%"><stop offset="30%" stop-color="#ffffff" stop-opacity="1"></stop><stop offset="70%" stop-color="#ffffff" stop-opacity="1"></stop></linearGradient></defs><g transform="translate(540, 960)"><path d="M-297 0C-295.5 -41.4 -294.1 -82.9 -274.4 -113.7C-254.7 -144.5 -216.9 -164.6 -186.7 -186.7C-156.5 -208.7 -133.9 -232.6 -104.1 -251.3C-74.3 -270 -37.1 -283.5 0 -297L0 0Z" fill="#CCCCCC"></path></g><g transform="translate(0, 0)"><path d="M297 0C289.8 40.8 282.5 81.6 259.6 107.5C236.7 133.5 198.1 144.6 173.9 173.9C149.8 203.3 140.2 250.8 113.7 274.4C87.1 297.9 43.5 297.5 0 297L0 0Z" fill="#CCCCCC"></path></g></svg>